<?xml version="1.0" encoding="utf-8"?>
<!-- Generator: Adobe Illustrator 24.1.2, SVG Export Plug-In . SVG Version: 6.00 Build 0)  -->
<svg version="1.1" id="Layer_1" xmlns="http://www.w3.org/2000/svg" xmlns:xlink="http://www.w3.org/1999/xlink" x="0px" y="0px"
	 viewBox="0 0 174 50" style="enable-background:new 0 0 174 50;" xml:space="preserve">
<style type="text/css">
	.st0{fill:#10ABAA;}
	.st1{fill:#017070;}
	.st2{fill:#FFFFFF;}
	.st3{font-family:'Poppins-Bold';}
	.st4{font-size:14px;}
	.st5{font-family:'icofont';}
	.st6{font-size:18px;}
</style>

<path class="st0" d="M87.06,0.01H9.08v25.05c0,0,1.6,10.68,14.98,13.26c0,0,21,4.3,32.17,7.12c0,0,13.75,4.56,30.82,4.56
	s30.82-4.56,30.82-4.56c11.18-2.82,32.17-7.12,32.17-7.12c13.39-2.58,14.98-13.26,14.98-13.26V0.01H87.06z"/>
<path class="st1" d="M165.04,6.85V0.01c0,0,5.07-0.48,8.96,6.84H165.04z"/>
<path class="st1" d="M8.96,6.85V0.01c0,0-5.07-0.48-8.96,6.84H8.96z"/>
<text transform="matrix(1 0 0 1 46.8662 20.8196)" class="st2 st3 st4">Best Value</text>
<text transform="matrix(1 0 0 1 78.06 41.8071)" class="st2 st5 st6"></text>
</svg>
